<svg xmlns="http://www.w3.org/2000/svg" viewBox="0 0 128 128">
  <polygon fill="#E27625" stroke="#E27625" stroke-width="0.5" stroke-linejoin="round" points="64,3 79.5,23 101.5,27 86.8,46 91.2,68 64,56.5 36.8,68 41.2,46 26.5,27 48.5,23"/>
  <polygon fill="#E27625" stroke="#E27625" stroke-width="0.5" stroke-linejoin="round" points="64,3 79.5,23 101.5,27 86.8,46 91.2,68 64,56.5"/>
  <polygon fill="#E27625" stroke="#E27625" stroke-width="0.5" stroke-linejoin="round" points="64,3 48.5,23 26.5,27 41.2,46 36.8,68 64,56.5"/>
  <polygon fill="#E27625" stroke="#E27625" stroke-width="0.5" stroke-linejoin="round" points="94,42 101.5,27 86.8,46"/>
  <polygon fill="#E27625" stroke="#E27625" stroke-width="0.5" stroke-linejoin="round" points="34,42 26.5,27 41.2,46"/>
  <polygon fill="#D5BFB2" stroke="#D5BFB2" stroke-width="0.5" stroke-linejoin="round" points="64,112 79.5,92 87,46 94,42"/>
  <polygon fill="#D5BFB2" stroke="#D5BFB2" stroke-width="0.5" stroke-linejoin="round" points="64,112 48.5,92 41.2,46 34,42"/>
  <polygon fill="#CC6228" stroke="#CC6228" stroke-width="0.5" stroke-linejoin="round" points="64,112 79.5,92 87,46 94,42"/>
  <polygon fill="#CC6228" stroke="#CC6228" stroke-width="0.5" stroke-linejoin="round" points="64,112 48.5,92 41.2,46 34,42"/>
  <polygon fill="#E27525" stroke="#E27525" stroke-width="0.5" stroke-linejoin="round" points="79.5,92 87,46 94,42"/>
  <polygon fill="#E27525" stroke="#E27525" stroke-width="0.5" stroke-linejoin="round" points="48.5,92 41.2,46 34,42"/>
  <polygon fill="#C0C0C0" stroke="#C0C0C0" stroke-width="0.5" stroke-linejoin="round" points="101.5,27 94,42 87,46 79.5,23"/>
  <polygon fill="#C0C0C0" stroke="#C0C0C0" stroke-width="0.5" stroke-linejoin="round" points="26.5,27 34,42 41.2,46 48.5,23"/>
  <polygon fill="#FFFFFF" stroke="#FFFFFF" stroke-width="0.5" stroke-linejoin="round" points="64,56.5 79.5,92 87,46 94,42 87,46 79.5,92 64,56.5 48.5,92 41.2,46 34,42 41.2,46 48.5,92"/>
</svg>