<svg xmlns="http://www.w3.org/2000/svg" viewBox="0 0 128 128">
  <rect fill="#1A1A2E" width="128" height="128" rx="20"/>
  <path fill="#F05A28" d="M64 28c-20,0 -36,16 -36,36s16,36 36,36c4,0 8,-1 12,-2l-8,-10c-2,1 -4,1 -6,1c-12,0 -22,-10 -22,-25s10,-25 22,-25c2,0 4,0 6,1l8,-10c-4,-2 -8,-2 -12,-2z"/>
  <path fill="#FFFFFF" d="M64 28c4,0 8,1 12,2l-8 10c-2,-1 -4,-1 -6,-1c-12,0 -22,10 -22,25s10,25 22,25c2,0 4,0 6,-1l8,10c-4,1 -8,2 -12,2c-20,0 -36,-16 -36,-36s16,-36 36,-36z"/>
  <circle fill="#F05A28" cx="64" cy="64" r="8"/>
</svg>